<?xml version="1.0" encoding="UTF-8" standalone="no"?>
<!-- Generator: Adobe Illustrator 22.0.0, SVG Export Plug-In . SVG Version: 6.00 Build 0)  -->

<svg
   xmlns:dc="http://purl.org/dc/elements/1.1/"
   xmlns:cc="http://creativecommons.org/ns#"
   xmlns:rdf="http://www.w3.org/1999/02/22-rdf-syntax-ns#"
   xmlns:svg="http://www.w3.org/2000/svg"
   xmlns="http://www.w3.org/2000/svg"
   xmlns:sodipodi="http://sodipodi.sourceforge.net/DTD/sodipodi-0.dtd"
   xmlns:inkscape="http://www.inkscape.org/namespaces/inkscape"
   version="1.1"
   id="Calque_1"
   x="0px"
   y="0px"
   viewBox="0 0 1200 205.9"
   style="enable-background:new 0 0 1200 205.9;"
   xml:space="preserve"
   sodipodi:docname="bd.laec.fr.svg"
   inkscape:version="0.92.4 (5da689c313, 2019-01-14)"><metadata
   id="metadata320"><rdf:RDF><cc:Work
       rdf:about=""><dc:format>image/svg+xml</dc:format><dc:type
         rdf:resource="http://purl.org/dc/dcmitype/StillImage" /><dc:title></dc:title></cc:Work></rdf:RDF></metadata><defs
   id="defs318" /><sodipodi:namedview
   pagecolor="#ffffff"
   bordercolor="#666666"
   borderopacity="1"
   objecttolerance="10"
   gridtolerance="10"
   guidetolerance="10"
   inkscape:pageopacity="0"
   inkscape:pageshadow="2"
   inkscape:window-width="780"
   inkscape:window-height="595"
   id="namedview316"
   showgrid="false"
   inkscape:zoom="0.30166667"
   inkscape:cx="600"
   inkscape:cy="102.95"
   inkscape:window-x="381"
   inkscape:window-y="298"
   inkscape:window-maximized="0"
   inkscape:current-layer="Calque_1" />
<style
   type="text/css"
   id="style261">
	.st0{fill:#FFFFFF;}
	.st1{fill:#FFFFFF;fill-opacity:0.498;}
</style>
<g
   id="g313">
	<g
   id="g300">
		<path
   id="path5_6_"
   class="st0"
   d="M220.1,159.7v26.9h14.7v7.7h-23.7v-34.6H220.1L220.1,159.7z" />
		<path
   id="path7_6_"
   class="st0"
   d="M279.8,188.2h-15l-2.4,6.1h-9.3l14.9-34.6h9.3l14.5,34.6h-9.6L279.8,188.2L279.8,188.2z     M277.1,181.3l-4.7-12.4l-4.8,12.4H277.1z" />
		<path
   id="path9_11_"
   class="st1"
   d="M305.9,159.7l8.6,25l8.7-25h9.3L319,194.3h-9.4l-13.4-34.6H305.9L305.9,159.7z" />
		<path
   id="path11_11_"
   class="st1"
   d="M370.5,159.7v7.2h-18.3v6.5h16.5v7.2l-16.5,0v6.5H371v7.2h-27.8v-34.6L370.5,159.7    L370.5,159.7z" />
		<path
   id="path13_11_"
   class="st1"
   d="M391.9,159.7l15.7,20.8v-20.8h8.4v34.6h-7.9l-15.7-20.7v20.7h-8.4v-34.6H391.9z" />
		<path
   id="path15_11_"
   class="st1"
   d="M439.2,159.7v34.6h-9v-34.6H439.2z" />
		<path
   id="path17_11_"
   class="st1"
   d="M474.1,194.3l-5-9.6h-0.2h-6.5v9.6h-9v-34.6h15.6c9.2,0,14.4,4.4,14.4,12.2    c0,5.2-2.2,9.1-6.2,11.2l7.2,11.3L474.1,194.3L474.1,194.3z M462.4,177.5h6.6c3.7,0,5.8-1.9,5.8-5.4c0-3.4-2.1-5.2-5.8-5.2h-6.6    V177.5z" />
		<path
   id="path19_6_"
   class="st0"
   d="M552.4,159.7v7.2h-18.3v6.5h16.5v7.2l-16.5,0v6.5h18.8v7.2h-27.8v-34.6L552.4,159.7    L552.4,159.7z" />
		<path
   id="path21_11_"
   class="st1"
   d="M573.8,159.7l15.7,20.8v-20.8h8.4v34.6H590l-15.7-20.7v20.7h-8.4v-34.6H573.8z" />
		<path
   id="path23_6_"
   class="st0"
   d="M657.1,167.1c-5.3,0-9.4,4.2-9.4,9.7c0,5.6,4.1,9.8,9.4,9.8c2.9,0,6.2-1.6,8.6-4.1l5.3,5.7    c-3.7,3.9-9.2,6.4-14.4,6.4c-10.4,0-18.2-7.6-18.2-17.8c0-10,8-17.5,18.5-17.5c5.1,0,10.5,2.3,14,5.9l-5.2,6.3    C663.5,168.9,660.2,167.1,657.1,167.1z" />
		<path
   id="path25_11_"
   class="st1"
   d="M716.9,177c0,10.1-8,17.7-18.7,17.7c-10.7,0-18.7-7.6-18.7-17.7c0-10.1,8-17.5,18.7-17.5    C708.9,159.4,716.9,166.9,716.9,177z M688.8,177c0,5.6,4.4,10,9.5,10c5.2,0,9.3-4.3,9.3-10s-4.1-9.9-9.3-9.9    S688.8,171.4,688.8,177z" />
		<path
   id="path27_11_"
   class="st1"
   d="M738.7,159.7l9.2,20.2l9.2-20.2h9.9v34.6h-8l0-21.9l-8.1,18.5h-5.9l-8.1-18.5v21.9h-8.1    v-34.6L738.7,159.7L738.7,159.7z" />
		<path
   id="path29_11_"
   class="st1"
   d="M791,159.7l9.2,20.2l9.2-20.2h9.9v34.6h-8l0-21.9l-8.1,18.5h-5.9l-8.1-18.5v21.9h-8.1v-34.6    L791,159.7L791,159.7z" />
		<path
   id="path31_11_"
   class="st1"
   d="M848.9,187c4,0,6.8-2.7,6.8-7.2v-20.1h9v20.1c0,9.1-6.1,14.9-15.9,14.9    c-9.8,0-16.1-5.8-16.1-14.9v-20.1h9v20.1C841.8,184.2,844.8,187,848.9,187L848.9,187z" />
		<path
   id="path33_11_"
   class="st1"
   d="M886.2,159.7l15.7,20.8v-20.8h8.4v34.6h-7.9l-15.7-20.7v20.7h-8.4v-34.6H886.2z" />
		<path
   class="st0"
   d="M524.6,105.1V15.3h-41V100c12,8.6,14.8,26.3,8.4,39.2h65.9l1.8-4.4l12.6-29.7H524.6z"
   id="path278" />
		<path
   id="path37_6_"
   class="st0"
   d="M622.4,15.3l-52.3,123.8h42l6.4-17.5H665l6.2,17.5h27v-41l-33.7-82.8L622.4,15.3z M629.1,92.4    l13.1-36.2l12.7,36.2H629.1z" />
		<path
   id="path39_6_"
   class="st0"
   d="M750.3,108.1V92.7h46.1c-1-5.2-1.5-10.5-1.5-16c0-5.2,0.5-10.2,1.4-15.1h-46V46.4h50.6    c3.2-7.5,7.6-14.5,13.2-20.6V15.3H709.3v123.8h106.4v-8.8c-6.2-6.5-11.1-14-14.6-22.3L750.3,108.1L750.3,108.1z" />
		<path
   id="path41_6_"
   class="st0"
   d="M905.1,91.1c-8.4,9-19.9,14.6-29,14.6c-15.3,0-26.5-12.4-26.5-29.6c0-17,11.1-29.2,26.5-29.2    c9.9,0,21.4,6.8,29,17.2l24.5-29c-13.2-14.2-34.5-23.4-54.1-23.4c-40.2,0-69.4,27.4-69.4,65c0,38.2,28.5,66.1,67.8,66.1    c12.7,0,26.3-4.2,38.2-11.4c-0.7-2.6-1-5.3-1-8.1c0-7.2,2.3-13.8,6.4-19L905.1,91.1L905.1,91.1z" />
		<polygon
   id="polygon43_11_"
   class="st1"
   points="596.6,47.8 569.4,47.8 579.5,15.5 610.1,15.5   " />
		<path
   id="path45_6_"
   class="st0"
   d="M1053.4,46.4V15.3h-99.6v80.8c3.2,1.4,6.1,3.4,8.6,5.8c5.5,5.5,8.5,13.1,8.5,21.4    c0,5.8-1.4,11.2-4.1,15.9h28V98.9h54.9V67.8h-54.9V46.4L1053.4,46.4L1053.4,46.4z" />
		<path
   id="path47_6_"
   class="st0"
   d="M1125.2,15.3h-59.9v123.8h41V107h15.4l14.8,32.2h46.3l-24.4-40.3    c12.7-7.8,19.6-21.2,19.6-39.2C1178,31.4,1158.7,15.3,1125.2,15.3L1125.2,15.3z M1125.2,75.9h-18.9V46.4h18.9    c8.8,0,14,5.3,14,14.5C1139.1,70.5,1134,75.9,1125.2,75.9z" />
		<path
   id="path49_11_"
   class="st1"
   d="M940.9,104.7c-11,0-18.6,7.7-18.6,18.6c0,11.1,7.7,18.8,18.6,18.8c11.1,0,18.8-7.7,18.8-18.8    C959.7,112.4,952,104.7,940.9,104.7z" />
		<polygon
   id="polygon51_11_"
   class="st1"
   points="242.4,168.8 234.8,168.8 237.6,159.7 246.2,159.7   " />
		<g
   id="g298">
			<path
   class="st0"
   d="M981.7,187v9h-29.5v-35.4h28.8v9H964v4.2h15v8.6h-15v4.7H981.7z"
   id="path288" />
			<path
   class="st0"
   d="M1026.9,160.6V196h-9.8l-13.5-16.1V196H992v-35.4h9.8l13.5,16.1v-16.1H1026.9z"
   id="path290" />
			<path
   class="st0"
   d="M1094,186.2c0,6.2-5.2,9.8-15,9.8h-20v-35.4h18.9c9.8,0,14.3,3.9,14.3,9.3c0,3.3-1.7,6-4.9,7.6     C1091.6,179,1094,182,1094,186.2z M1070.9,168.9v5.3h5.6c2.7,0,3.9-0.9,3.9-2.6s-1.2-2.6-3.9-2.6H1070.9z M1082,184.9     c0-1.8-1.3-2.8-3.9-2.8h-7.2v5.6h7.2C1080.7,187.7,1082,186.7,1082,184.9z"
   id="path292" />
			<path
   class="st0"
   d="M1103.9,160.6h17.5c11.8,0,20,6.7,20,17.7s-8.2,17.7-20,17.7h-17.5V160.6z M1120.8,186.7c5,0,8.5-3,8.5-8.4     s-3.4-8.4-8.5-8.4h-5v16.8H1120.8z"
   id="path294" />
			<path
   class="st0"
   d="M1170.4,160.6h13.7l-2.3,21.9h-9.1L1170.4,160.6z M1170.5,190.4c0-3.4,2.7-6,6.7-6c3.9,0,6.7,2.6,6.7,6     c0,3.3-2.7,6.1-6.7,6.1C1173.2,196.5,1170.5,193.8,1170.5,190.4z"
   id="path296" />
		</g>
	</g>
	<path
   id="path58_11_"
   class="st1"
   d="M43.6,177.2h123.2V166H43.6c-2.8,0-5.2,2.5-5.2,5.6C38.5,174.7,40.8,177.2,43.6,177.2z" />
	<g
   id="g309">
		<g
   id="g307">
			<path
   class="st0"
   d="M330,104.6c0,21.6-18.1,34.2-51.9,34.2h-69.1V14.8h65.6c33.9,0,49.7,13.6,49.7,32.4c0,11.5-5.8,21.1-17,26.8     C321.6,79.3,330,89.9,330,104.6z M249.7,44v18.4H269c9.3,0,13.5-3.2,13.5-9.2S278.3,44,269,44H249.7z M288.3,99.8     c0-6.4-4.6-9.7-13.7-9.7h-24.9v19.5h24.9C283.7,109.6,288.3,106.2,288.3,99.8z"
   id="path303" />
			<path
   class="st0"
   d="M459.7,94.7c1.5-5.5,2.3-11.5,2.3-17.9c0-38.5-28.3-62-69.3-62h-60.5v124.1h60.5c17.4,0,32.5-4.3,44.1-12.1     C435.6,112.6,443.3,97.5,459.7,94.7z M390.9,106.2h-17.4V47.4h17.4c17.4,0,29.3,10.5,29.3,29.4S408.3,106.2,390.9,106.2z"
   id="path305" />
		</g>
	</g>
	<path
   id="path49_1_"
   class="st1"
   d="M466.1,104.7c-11,0-18.6,7.7-18.6,18.6c0,11.1,7.7,18.8,18.6,18.8c11.1,0,18.8-7.7,18.8-18.8   C484.9,112.4,477.2,104.7,466.1,104.7z" />
	<path
   id="path56_5_"
   class="st0"
   d="M177.6,38.2v150.3H44c0,0-16.7,0-16.7-16.7c0-16.7,16.7-16.7,16.7-16.7h43.2   c-1.3-6.1-2.3-13.2-2.7-20.7c-10.3-2.8-19.9-8.7-27.4-17.4c-9.5-11.2-14.1-25.4-12.9-40c1.2-14.6,8.1-27.9,19.4-37.4   c7.6-6.4,16.7-10.6,26.5-12.2c0.7-0.1,2.1-0.4,3.7-0.4c5.9,0,8.7,3.1,9.8,5c4.2,7.2-2,15.5-9.5,23.4c-2.9,3.1-7.7,3.2-10.7,0.4   c-3-2.8-3.2-7.4-0.6-10.4c-3.3,1.5-6.5,3.5-9.3,5.9c-8.2,6.9-13.1,16.5-14,27.1c-0.9,10.6,2.4,20.9,9.4,29   c4.3,5.1,9.7,8.8,15.5,11.2c0-0.1,0-0.2,0-0.3c0.4-13.4,2.3-33,9.5-50.8c4.4-10.8,10.2-18.4,17.5-22.7c7.1-4.2,15.1-5,23.2-2.1   c13.5,4.7,18.2,20.5,18.8,23c2.9,9.9,2.8,20.6-0.5,31.1c-3.3,10.6-9.4,19.9-17.8,26.9c-4.9,4.1-10.4,7.3-16.1,9.4   c-6.1,2.3-12.6,3.5-19.1,3.6c0.6,7,1.6,13.4,3,18.7h63.6V15.9c0,0-100.2,0-122.5,0s-22.3,23-22.3,23s0,110.7,0,133.3   c0,22.6,22.3,21.9,22.3,21.9h139.2V38.2H177.6z M138.7,69.7l-0.1-0.3c-0.7-2.7-4-10.8-9.2-12.6c-6-2.1-14.6-1-21.5,16.2   c-4.9,12.2-7.9,28.4-8.4,45.6c0,0.9,0,1.8-0.1,2.7c9.1,0,18.3-3.1,25.8-9.4C137.5,101.6,143,84.2,138.7,69.7L138.7,69.7z" />
</g>
</svg>